<svg width="40" height="40" viewBox="0 0 40 40" fill="none" xmlns="http://www.w3.org/2000/svg">
<path d="M0 10.3333C0 9.44928 0.351189 8.60143 0.976311 7.97631C1.60143 7.35119 2.44928 7 3.33333 7H18.3333C19.2174 7 20.0652 7.35119 20.6904 7.97631C21.3155 8.60143 21.6667 9.44928 21.6667 10.3333V13.6667C21.6667 14.1087 21.4911 14.5326 21.1785 14.8452C20.8659 15.1577 20.442 15.3333 20 15.3333C19.558 15.3333 19.134 15.1577 18.8215 14.8452C18.5089 14.5326 18.3333 14.1087 18.3333 13.6667V10.3333H3.33333V30.3333H18.3333V27C18.3333 26.558 18.5089 26.134 18.8215 25.8215C19.134 25.5089 19.558 25.3333 20 25.3333C20.442 25.3333 20.8659 25.5089 21.1785 25.8215C21.4911 26.134 21.6667 26.558 21.6667 27V30.3333C21.6667 31.2174 21.3155 32.0652 20.6904 32.6904C20.0652 33.3155 19.2174 33.6667 18.3333 33.6667H3.33333C2.44928 33.6667 1.60143 33.3155 0.976311 32.6904C0.351189 32.0652 0 31.2174 0 30.3333V10.3333ZM25.4883 14.155C25.8009 13.8425 26.2247 13.667 26.6667 13.667C27.1086 13.667 27.5325 13.8425 27.845 14.155L32.845 19.155C33.1575 19.4675 33.333 19.8914 33.333 20.3333C33.333 20.7753 33.1575 21.1991 32.845 21.5117L27.845 26.5117C27.5307 26.8153 27.1097 26.9833 26.6727 26.9795C26.2357 26.9757 25.8176 26.8004 25.5086 26.4914C25.1996 26.1823 25.0243 25.7643 25.0205 25.3273C25.0167 24.8903 25.1847 24.4693 25.4883 24.155L27.6433 22H11.6667C11.2246 22 10.8007 21.8244 10.4882 21.5118C10.1756 21.1993 10 20.7754 10 20.3333C10 19.8913 10.1756 19.4674 10.4882 19.1548C10.8007 18.8423 11.2246 18.6667 11.6667 18.6667H27.6433L25.4883 16.5117C25.1759 16.1991 25.0004 15.7753 25.0004 15.3333C25.0004 14.8914 25.1759 14.4675 25.4883 14.155Z" fill="white"/>
</svg>
